<svg xmlns="http://www.w3.org/2000/svg" xmlns:xlink="http://www.w3.org/1999/xlink" viewBox="0 0 268.83984 77.63867"><defs><style>.cls-1{font-size:72px;font-family:Humanist521BT-ExtraBold, Humanst521 XBd BT;font-weight:800;}.cls-2{letter-spacing:-0.01807em;}.cls-3{fill:url(#linear-gradient);}</style><linearGradient id="linear-gradient" x1="4.39453" y1="36.04883" x2="268.83984" y2="36.04883" gradientUnits="userSpaceOnUse"><stop offset="0" stop-color="#be1e2d"/><stop offset="0.02569" stop-color="#c3252d"/><stop offset="0.12708" stop-color="#d43d2c"/><stop offset="0.23503" stop-color="#e04e2c"/><stop offset="0.35306" stop-color="#e8582c"/><stop offset="0.5" stop-color="#ea5b2c"/><stop offset="0.61552" stop-color="#e6552c"/><stop offset="0.76663" stop-color="#da452c"/><stop offset="0.93684" stop-color="#c72a2d"/><stop offset="1" stop-color="#be1e2d"/></linearGradient></defs><g id="Capa_2" data-name="Capa 2"><g id="Objects"><text class="cls-1" transform="translate(-0.00021 60.58751)">M<tspan class="cls-2" x="69.11719" y="0">O</tspan><tspan x="126.49268" y="0">VIX</tspan></text><path class="cls-3" d="M4.39453,60.58789V11.4043H20.07422l14.48437,19.793L49.043,11.4043H64.65234V60.58789H47.67188V34.15039L34.55859,52.08008,21.375,34.15039v26.4375Z"/><path class="cls-3" d="M71.26172,36.04883a23.91086,23.91086,0,0,1,7.87012-18.2461,26.00662,26.00662,0,0,1,8.69531-5.36132,31.99363,31.99363,0,0,1,21.22021,0,25.55531,25.55531,0,0,1,8.69532,5.36132,23.94,23.94,0,0,1,5.86718,8.19141,25.38327,25.38327,0,0,1,1.9336,10.05469,25.03628,25.03628,0,0,1-1.9336,9.98437,24.03955,24.03955,0,0,1-5.86718,8.15625,26.07609,26.07609,0,0,1-8.748,5.43164A29.8564,29.8564,0,0,1,98.41992,61.4668,29.52717,29.52717,0,0,1,87.8623,59.62109a26.58567,26.58567,0,0,1-8.73046-5.43164,24.42408,24.42408,0,0,1-5.92041-8.1914A24.7656,24.7656,0,0,1,71.26172,36.04883Zm17.08594-.07031a11.13918,11.13918,0,0,0,2.84277,7.83984,9.9522,9.9522,0,0,0,14.42334,0,11.13331,11.13331,0,0,0,2.84375-7.83984,11.06984,11.06984,0,0,0-2.84375-7.82227,9.99145,9.99145,0,0,0-14.42334,0A11.07566,11.07566,0,0,0,88.34766,35.97852Z"/><path class="cls-3" d="M145.37109,60.58789,124.84033,11.4043h17.9292l10.86328,30.09375L164.49609,11.4043h16.5586L160.91016,60.58789Z"/><path class="cls-3" d="M184.07812,60.58789V11.4043h17.15626V60.58789Z"/><path class="cls-3" d="M205.62891,60.58789l21.23437-24.25781L206.40234,11.4043h21.55078l10.125,14.48437L248.97656,11.4043h18.98438L247.60547,34.81836l21.23437,25.76953H247.07812L236.21484,45.33008,224.71875,60.58789Z"/></g></g></svg>