<svg xmlns="http://www.w3.org/2000/svg" xmlns:xlink="http://www.w3.org/1999/xlink" viewBox="0 0 268.83984 274.02201"><defs><style>.cls-1{fill:url(#linear-gradient);}.cls-2{fill:url(#linear-gradient-2);}.cls-3{fill:url(#linear-gradient-3);}.cls-4{fill:url(#linear-gradient-4);}.cls-5{fill:url(#linear-gradient-5);}.cls-6{fill:#000100;opacity:0.4;}.cls-7{font-size:72px;font-family:Humanist521BT-ExtraBold, Humanst521 XBd BT;font-weight:800;}.cls-8{letter-spacing:-0.01807em;}.cls-9{fill:url(#linear-gradient-6);}</style><linearGradient id="linear-gradient" x1="233.55872" y1="154.8422" x2="239.77236" y2="32.82374" gradientUnits="userSpaceOnUse"><stop offset="0" stop-color="#ea5b2c"/><stop offset="1" stop-color="#be1e2d"/></linearGradient><linearGradient id="linear-gradient-2" x1="70.16594" y1="155.53746" x2="107.11879" y2="135.00785" xlink:href="#linear-gradient"/><linearGradient id="linear-gradient-3" x1="23.90379" y1="72.45669" x2="27.2745" y2="147.73509" xlink:href="#linear-gradient"/><linearGradient id="linear-gradient-4" x1="241.04826" y1="8.24442" x2="134.67116" y2="59.48349" xlink:href="#linear-gradient"/><linearGradient id="linear-gradient-5" x1="158.8122" y1="126.65927" x2="81.82641" y2="30.68413" gradientUnits="userSpaceOnUse"><stop offset="0" stop-color="#be1e2d"/><stop offset="0.02569" stop-color="#c3252d"/><stop offset="0.12708" stop-color="#d43d2c"/><stop offset="0.23503" stop-color="#e04e2c"/><stop offset="0.35306" stop-color="#e8582c"/><stop offset="0.5" stop-color="#ea5b2c"/><stop offset="0.61552" stop-color="#e6552c"/><stop offset="0.76663" stop-color="#da452c"/><stop offset="0.93684" stop-color="#c72a2d"/><stop offset="1" stop-color="#be1e2d"/></linearGradient><linearGradient id="linear-gradient-6" x1="4.39453" y1="232.43217" x2="268.83984" y2="232.43217" xlink:href="#linear-gradient-5"/></defs><g id="Capa_2" data-name="Capa 2"><g id="Objects"><path class="cls-1" d="M248.88183,16.085l-27.6543,15.9673.0029,123.5146v31.9073c.9356.0839,1.8692.1445,2.79791.1445,16.48529,0,27.99509-12.9775,27.99509-31.5576V31.5591A37.37221,37.37221,0,0,0,248.88183,16.085Z"/><path class="cls-2" d="M99.60934,120.9058l-60.0332,34.6611-27.6533,15.9678a26.49139,26.49139,0,0,0,24.8516,16.084,35.42157,35.42157,0,0,0,17.7715-5.1367l67.6044-39.0313,8.252-4.7641Z"/><path class="cls-3" d="M36.77444,0h-.0303c-13.9063.0152-24.2666,9.2676-27.1523,23.3282a40.52523,40.52523,0,0,0-.8106,7.9511V156.0611a37.40506,37.40506,0,0,0,3.1416,15.4736l27.6533-15.9678V.1441C38.64064.0581,37.707,0,36.77444,0Z"/><path class="cls-4" d="M224.03323,0h-.00489a33.426,33.426,0,0,0-13.14261,2.813l-.0137.0093a42.998,42.998,0,0,0-4.6113,2.3135L138.65434,44.167l-8.24711,4.7647,30.79,17.7788,39.1865-22.6245,20.8438-12.0337,27.6543-15.9673A26.4942,26.4942,0,0,0,224.03323,0Z"/><path class="cls-5" d="M161.19723,120.9058l1.1709-.6758c10.834-6.2554,17.0498-15.8843,17.0498-26.4233,0-10.5322-6.2158-20.1631-17.0498-26.4185l-1.1709-.6777-30.79-17.7788L62.12014,9.5069l-7.5742-4.3711A36.67375,36.67375,0,0,0,39.57614.1441V32.0503l60.0332,34.6602,30.79789,17.7807,16.1367,9.3155-16.14159,9.3203-30.793,17.7788,30.793,17.7808,68.28219,39.4262,7.5762,4.3692a36.63971,36.63971,0,0,0,14.9697,4.9922V155.5669Z"/><path class="cls-6" d="M198.68453,178.1128l7.5762,4.3692a36.63971,36.63971,0,0,0,14.9697,4.9922V155.5669Z"/><polygon class="cls-6" points="130.407 48.932 161.197 66.711 138.654 44.167 130.407 48.932"/><path class="cls-6" d="M8.78124,156.0611a37.40506,37.40506,0,0,0,3.1416,15.4736l27.6533-15.9678H8.78124Z"/><path class="cls-6" d="M54.54594,5.1358A36.67375,36.67375,0,0,0,39.57614.1441V32.0503l22.544-22.5434Z"/><polygon class="cls-6" points="130.402 138.687 99.609 120.906 122.15 143.451 130.402 138.687"/><path class="cls-6" d="M252.02343,31.5591a37.37221,37.37221,0,0,0-3.1416-15.4741l-27.6543,15.9673h30.7959Z"/><text class="cls-7" transform="translate(-0.00021 256.97084)">M<tspan class="cls-8" x="69.11719" y="0">O</tspan><tspan x="126.49268" y="0">VIX</tspan></text><path class="cls-9" d="M4.39453,256.97123V207.78764H20.07422l14.48437,19.793,14.48438-19.793H64.65234v49.18359H47.67188v-26.4375L34.55859,248.46342,21.375,230.53373v26.4375Z"/><path class="cls-9" d="M71.26172,232.43217a23.91086,23.91086,0,0,1,7.87012-18.2461,26.00662,26.00662,0,0,1,8.69531-5.36132,31.99363,31.99363,0,0,1,21.22021,0,25.55531,25.55531,0,0,1,8.69532,5.36132,23.94,23.94,0,0,1,5.86718,8.19141,25.38327,25.38327,0,0,1,1.9336,10.05469,25.03628,25.03628,0,0,1-1.9336,9.98437,24.03955,24.03955,0,0,1-5.86718,8.15625,26.07609,26.07609,0,0,1-8.748,5.43164,29.8564,29.8564,0,0,1-10.57471,1.84571,29.52717,29.52717,0,0,1-10.55762-1.84571,26.58567,26.58567,0,0,1-8.73046-5.43164,24.42418,24.42418,0,0,1-5.92041-8.1914A24.7656,24.7656,0,0,1,71.26172,232.43217Zm17.08594-.07032a11.13919,11.13919,0,0,0,2.84277,7.83985,9.9522,9.9522,0,0,0,14.42334,0,12.20436,12.20436,0,0,0,0-15.66211,9.99145,9.99145,0,0,0-14.42334,0A11.07565,11.07565,0,0,0,88.34766,232.36185Z"/><path class="cls-9" d="M145.37109,256.97123l-20.53076-49.18359h17.9292l10.86328,30.09375,10.86328-30.09375h16.5586l-20.14453,49.18359Z"/><path class="cls-9" d="M184.07812,256.97123V207.78764h17.15626v49.18359Z"/><path class="cls-9" d="M205.62891,256.97123l21.23437-24.25781-20.46094-24.92578h21.55078l10.125,14.48437,10.89844-14.48437h18.98438L247.60547,231.2017l21.23437,25.76953H247.07812l-10.86328-15.25781-11.49609,15.25781Z"/></g></g></svg>