<svg xmlns="http://www.w3.org/2000/svg" xmlns:xlink="http://www.w3.org/1999/xlink" viewBox="0 0 243.24219 187.6187"><defs><style>.cls-1{fill:url(#linear-gradient);}.cls-2{fill:url(#linear-gradient-2);}.cls-3{fill:url(#linear-gradient-3);}.cls-4{fill:url(#linear-gradient-4);}.cls-5{fill:url(#linear-gradient-5);}.cls-6{fill:#000100;opacity:0.4;}</style><linearGradient id="linear-gradient" x1="224.77748" y1="154.8422" x2="230.99112" y2="32.82374" gradientUnits="userSpaceOnUse"><stop offset="0" stop-color="#ea5b2c"/><stop offset="1" stop-color="#be1e2d"/></linearGradient><linearGradient id="linear-gradient-2" x1="61.3847" y1="155.53746" x2="98.33756" y2="135.00785" xlink:href="#linear-gradient"/><linearGradient id="linear-gradient-3" x1="15.12255" y1="72.45669" x2="18.49326" y2="147.73509" xlink:href="#linear-gradient"/><linearGradient id="linear-gradient-4" x1="232.26702" y1="8.24442" x2="125.88992" y2="59.48349" xlink:href="#linear-gradient"/><linearGradient id="linear-gradient-5" x1="150.03096" y1="126.65927" x2="73.04518" y2="30.68413" gradientUnits="userSpaceOnUse"><stop offset="0" stop-color="#be1e2d"/><stop offset="0.02569" stop-color="#c3252d"/><stop offset="0.12708" stop-color="#d43d2c"/><stop offset="0.23503" stop-color="#e04e2c"/><stop offset="0.35306" stop-color="#e8582c"/><stop offset="0.5" stop-color="#ea5b2c"/><stop offset="0.61552" stop-color="#e6552c"/><stop offset="0.76663" stop-color="#da452c"/><stop offset="0.93684" stop-color="#c72a2d"/><stop offset="1" stop-color="#be1e2d"/></linearGradient></defs><g id="Capa_2" data-name="Capa 2"><g id="Objects"><path class="cls-1" d="M240.10059,16.085l-27.6543,15.9673.0029,123.5146v31.9073c.9356.0839,1.8692.1445,2.79792.1445,16.48528,0,27.99508-12.9775,27.99508-31.5576V31.5591A37.37221,37.37221,0,0,0,240.10059,16.085Z"/><path class="cls-2" d="M90.82811,120.9058,30.7949,155.5669,3.1416,171.5347a26.49139,26.49139,0,0,0,24.8516,16.084,35.42157,35.42157,0,0,0,17.7715-5.1367l67.60441-39.0313,8.252-4.7641Z"/><path class="cls-3" d="M27.9932,0h-.0303C14.0566.0152,3.6963,9.2676.8106,23.3282A40.526,40.526,0,0,0,0,31.2793V156.0611a37.40506,37.40506,0,0,0,3.1416,15.4736l27.6533-15.9678V.1441C29.8594.0581,28.9258,0,27.9932,0Z"/><path class="cls-4" d="M215.252,0h-.00488a33.426,33.426,0,0,0-13.14262,2.813l-.0137.0093a42.9969,42.9969,0,0,0-4.61129,2.3135L129.87311,44.167,121.626,48.9317l30.79,17.7788L191.6025,44.086l20.84379-12.0337,27.6543-15.9673A26.4942,26.4942,0,0,0,215.252,0Z"/><path class="cls-5" d="M152.416,120.9058l1.1709-.6758c10.834-6.2554,17.0498-15.8843,17.0498-26.4233,0-10.5322-6.2158-20.1631-17.0498-26.4185l-1.1709-.6777-30.79-17.7788L53.3389,9.5069,45.7647,5.1358A36.67375,36.67375,0,0,0,30.7949.1441V32.0503L90.82811,66.7105,121.626,84.4912l16.1367,9.3155-16.14159,9.3203-30.793,17.7788,30.793,17.7808,68.28219,39.4262,7.5762,4.3692a36.63962,36.63962,0,0,0,14.96969,4.9922V155.5669Z"/><path class="cls-6" d="M189.9033,178.1128l7.5762,4.3692a36.63962,36.63962,0,0,0,14.96969,4.9922V155.5669Z"/><polygon class="cls-6" points="121.626 48.932 152.416 66.711 129.873 44.167 121.626 48.932"/><path class="cls-6" d="M0,156.0611a37.40506,37.40506,0,0,0,3.1416,15.4736l27.6533-15.9678H0Z"/><path class="cls-6" d="M45.7647,5.1358A36.67375,36.67375,0,0,0,30.7949.1441V32.0503L53.3389,9.5069Z"/><polygon class="cls-6" points="121.621 138.687 90.828 120.906 113.369 143.451 121.621 138.687"/><path class="cls-6" d="M243.24219,31.5591a37.37221,37.37221,0,0,0-3.1416-15.4741l-27.6543,15.9673h30.7959Z"/></g></g></svg>